<svg width="1em" height="1em" viewBox="0 0 20 20" fill="currentColor" xmlns="http://www.w3.org/2000/svg" class="icon" aria-label=""><path d="M15.5707 2.18424C16.2172 1.91495 16.9523 2.08245 17.435 2.5651L17.5268 2.66568C17.9375 3.14611 18.0672 3.826 17.8159 4.42936L17.7563 4.55729C17.0247 5.96929 16.1512 7.19856 15.0952 8.3024C16.1595 9.60343 16.9544 10.9444 17.2817 12.194C17.6271 13.513 17.4625 14.8113 16.4604 15.7526L16.2495 15.9362C15.3041 16.6925 14.2397 16.5972 13.3676 16.237C12.5149 15.8847 11.7507 15.2494 11.2192 14.736C10.9554 14.4808 10.9486 14.0606 11.2036 13.7965C11.4587 13.5324 11.8788 13.5249 12.143 13.7799C12.632 14.2522 13.253 14.7503 13.8754 15.0075C14.4786 15.2566 14.9814 15.2476 15.4184 14.8981L15.5356 14.7965C16.0972 14.2758 16.2587 13.5358 15.9955 12.5309C15.7402 11.556 15.0942 10.4153 14.1352 9.22721C13.6183 9.68612 13.0635 10.1247 12.4653 10.5446L12.3276 10.3483V10.3493L12.4653 10.5446C12.4206 10.5759 12.3723 10.5979 12.3237 10.6169C12.2889 11.2362 12.0961 11.7532 11.7455 12.1569C11.3661 12.5938 10.8613 12.8333 10.3657 12.9684C9.41524 13.2274 8.24067 13.1569 7.50824 13.1569C7.14097 13.1569 6.8432 12.8591 6.8432 12.4919C6.84319 11.7594 6.77269 10.5849 7.03168 9.63443C7.16676 9.13878 7.40626 8.63402 7.8432 8.25455C8.24673 7.90413 8.76328 7.71035 9.38226 7.67545C9.40122 7.62702 9.42432 7.57929 9.45551 7.53482C9.82484 7.00868 10.2088 6.51626 10.6078 6.05338C8.18682 4.65714 5.77692 4.65583 4.43597 5.83951L4.30121 5.96744C3.44402 6.82463 3.12263 8.16037 3.41547 9.72232C3.70763 11.2805 4.60535 12.9913 6.06879 14.4547L6.39594 14.7672C7.16606 15.4689 7.96602 15.9748 8.63617 16.3131C9.01862 16.5062 9.35331 16.6421 9.60883 16.7282C9.75074 16.776 9.85238 16.8021 9.91644 16.8171L10.0004 16.8356L10.1342 16.8483C10.4374 16.9102 10.6655 17.1792 10.6655 17.5006C10.6653 17.8219 10.4372 18.0901 10.1342 18.152L10.0004 18.1657L9.81976 18.151C9.62747 18.1242 9.40328 18.0615 9.185 17.9879C8.8651 17.8802 8.47125 17.7191 8.03656 17.4997C7.27643 17.1159 6.37221 16.545 5.49945 15.7497L5.12836 15.3952C3.50015 13.767 2.45549 11.8215 2.10785 9.96744C1.76097 8.11721 2.10269 6.28511 3.36078 5.02701L3.55902 4.83951C5.56925 3.05673 8.8026 3.3871 11.5366 5.05924C12.6813 3.93293 13.9621 3.01097 15.4428 2.24381L15.5707 2.18424ZM9.58734 8.99869C9.1331 8.9987 8.8763 9.11869 8.71527 9.25846C8.54385 9.40733 8.40833 9.64114 8.31488 9.98404C8.16637 10.529 8.16105 11.1743 8.16742 11.8327C8.82581 11.839 9.47111 11.8337 10.0161 11.6852C10.359 11.5918 10.5928 11.4563 10.7416 11.2848C10.8814 11.1238 11.0014 10.867 11.0014 10.4128C11.0014 9.63161 10.3685 8.99869 9.58734 8.99869ZM16.4946 3.5065C16.3821 3.39404 16.2306 3.36368 16.1059 3.40396L16.0551 3.42447C13.9314 4.52482 12.2583 5.96237 10.7944 7.95084C11.3392 8.21844 11.7804 8.6601 12.0483 9.20475C14.0368 7.74085 15.4753 6.06968 16.5756 3.94596L16.5971 3.8942C16.6315 3.78742 16.6139 3.66095 16.5375 3.55631L16.4946 3.5065Z"></path></svg>