<?xml version="1.0" standalone="no"?><!DOCTYPE svg PUBLIC "-//W3C//DTD SVG 1.1//EN" "http://www.w3.org/Graphics/SVG/1.1/DTD/svg11.dtd"><svg t="1747375287036" class="icon" width="1em" height="1em" viewBox="0 0 1024 1024" version="1.1" xmlns="http://www.w3.org/2000/svg" p-id="3560" xmlns:xlink="http://www.w3.org/1999/xlink"><path d="M344.697 693.227c-11.355-9.084-19.304-20.439-23.846-34.065l-27.252-88.57c-6.813-15.897-14.762-30.659-23.846-44.285-20.439-24.981-44.285-42.014-71.537-51.098l-88.57-27.252c-13.626-4.542-23.846-11.923-30.659-22.142-6.813-10.22-11.355-20.439-13.626-30.659-2.271-10.22-1.703-20.439 1.703-30.659 3.407-10.22 8.516-19.304 15.329-27.252s15.897-13.058 27.252-15.329l88.57-30.659c20.439-6.813 39.175-18.168 56.208-34.065s28.955-35.201 35.768-57.911l27.252-88.57c4.542-9.084 10.22-17.6 17.033-25.549 6.813-7.949 15.329-13.626 25.549-17.033 10.22-3.407 20.439-3.974 30.659-1.703 10.22 2.271 20.439 6.813 30.659 13.626 10.22 6.813 17.6 17.033 22.142 30.659l30.659 88.57c6.813 22.71 18.736 42.014 35.768 57.911 17.033 15.897 36.904 27.252 59.614 34.065l85.163 30.659c15.897 4.542 27.252 11.923 34.065 22.142 6.813 10.22 11.355 20.439 13.626 30.659 2.271 10.22 1.703 20.439-1.703 30.659-3.407 10.22-8.516 18.736-15.329 25.549-6.813 6.813-15.897 12.491-27.252 17.033l-88.57 27.252c-22.71 9.084-42.014 21.575-57.911 37.472-15.897 15.897-28.388 35.201-37.472 57.911l-27.252 88.57c-4.542 13.626-12.491 24.413-23.846 32.362-11.355 7.949-24.413 11.923-39.175 11.923s-27.818-3.408-39.173-10.221z m6.813-473.506c-11.355 31.794-28.388 59.046-51.098 81.756s-49.962 39.743-81.756 51.098l-88.57 30.659 88.57 30.659c31.794 11.355 59.614 28.955 83.46 52.801 23.846 23.846 40.311 51.666 49.395 83.46l30.659 88.57 30.659-88.57c11.355-31.794 28.955-59.614 52.801-83.46s51.666-40.31 83.46-49.395l88.57-30.659-88.57-34.065c-31.794-9.084-59.614-25.549-83.46-49.395s-41.446-51.666-52.801-83.46l-27.252-88.57-34.067 88.571z m384.937 728.995c-9.084-4.542-14.762-12.491-17.033-23.846l-17.033-47.691c-2.271-11.355-7.381-21.007-15.329-28.955-7.949-7.949-17.6-13.058-28.955-15.329l-47.691-17.033c-11.355-2.271-19.871-7.949-25.549-17.033s-8.516-19.304-8.516-30.659 2.839-21.575 8.516-30.659c5.678-9.084 14.194-14.762 25.549-17.033l47.691-17.033c11.355-4.542 20.439-10.22 27.252-17.033 6.813-6.813 12.491-15.897 17.033-27.252l13.626-47.691a122.6 122.6 0 0 1 15.329-18.736c5.678-5.678 11.923-10.22 18.736-13.626 6.813-3.407 14.762-4.542 23.846-3.407 9.084 1.135 17.033 4.542 23.846 10.22 6.813 5.677 12.491 14.194 17.033 25.549l17.033 47.691c2.271 11.355 7.381 21.007 15.329 28.955 7.949 7.948 16.465 13.058 25.549 15.329l51.098 17.033c6.813 2.271 13.058 6.245 18.736 11.923 5.677 5.677 10.22 12.491 13.626 20.439 3.406 7.948 4.542 15.897 3.406 23.846-1.136 7.948-4.542 15.897-10.22 23.846-5.677 7.948-14.194 13.058-25.549 15.329l-47.691 17.033c-11.355 2.271-21.007 7.381-28.955 15.329-7.949 7.948-13.058 17.6-15.329 28.955l-17.033 47.691c-2.271 11.355-7.949 19.871-17.033 25.549-9.084 5.678-19.304 8.516-30.659 8.516s-21.575-3.404-30.659-10.217z m-57.911-177.139c20.439 6.813 38.039 17.6 52.801 32.362s25.549 32.362 32.362 52.801l3.406 10.22 3.406-10.22c6.813-20.439 17.6-38.039 32.362-52.801s32.362-25.549 52.801-32.362l10.22-3.406-10.22-3.407c-20.439-6.813-38.039-17.6-52.801-32.362s-25.549-32.362-32.362-52.801l-3.406-10.22-3.406 10.22c-6.813 20.439-17.6 38.039-32.362 52.801s-32.362 25.549-52.801 32.362l-10.22 3.407 10.22 3.406z" p-id="3561"></path></svg>