<svg width="24" height="24" xmlns="http://www.w3.org/2000/svg" fill-rule="evenodd" fill="currentColor">
 <g>
  <title>Layer 1</title>
  <path stroke="null" id="svg_1" d="m15.81796,5.39786l5.41034,3.0761l0,0.06519l-5.46579,3.04313l0.01274,-1.58638l-0.61522,-0.02248c-0.79357,-0.02098 -1.20721,0.0015 -1.69954,0.08243c-0.79731,0.13114 -1.52718,0.43238 -2.35822,1.01313l-1.6231,1.12778c-0.21282,0.14612 -0.37093,0.25178 -0.50956,0.34096l-0.38592,0.24129l-0.29749,0.17535l0.2885,0.17235l0.39716,0.25328c0.35669,0.2353 0.87674,0.59649 2.02401,1.3983c0.83178,0.58075 1.56091,0.88199 2.35822,1.01313l0.22481,0.03372c0.52005,0.06819 1.03036,0.07044 2.11693,0.02473l0.01649,-1.61786l5.41034,3.0761l0,0.06519l-5.46579,3.04388l0.01049,-1.3953l-0.47584,0.01649c-1.03861,0.03147 -1.60137,0.0015 -2.35147,-0.1214c-1.26941,-0.20982 -2.4429,-0.6939 -3.6576,-1.54292l-1.61711,-1.12403a16.48355,16.48355 0 0 0 -0.56576,-0.37318l-0.34995,-0.20982a41.90915,41.90915 0 0 0 -0.56951,-0.32222c-0.67517,-0.37543 -2.43241,-0.83553 -2.85429,-0.83553l0,-3.16827l0.10491,0.003c0.42264,-0.00525 2.18062,-0.4661 2.85429,-0.84227l0.76134,-0.43463l0.32822,-0.20532c0.32072,-0.20982 0.80331,-0.54403 2.01277,-1.38855c1.2147,-0.84902 2.38744,-1.33385 3.6576,-1.54292c0.86326,-0.14238 1.47923,-0.15961 2.85804,-0.10341l0.01499,-1.42902z"/>
 </g>
</svg>